<?xml version="1.0" encoding="UTF-8"?>
<svg aria-hidden="true" xmlns="http://www.w3.org/2000/svg">
    <symbol viewBox="0 0 448 512" id="accessibility-wheelchair">
        <path fill="currentColor" d="M443.875 396.323l3.151 7.353c2.611 6.092-.211 13.146-6.303 15.757l-42.421 19.273c-7.658 3.284-17.345.3-21.175-8.797L317.376 288H176a16 16 0 0 1-15.839-13.737C125.779 33.586 128.211 51.165 128 48c0-27.13 22.508-49.003 49.87-47.964 24.878.945 45.15 21.216 46.095 46.094C225.004 73.491 203.131 96 176 96c-3.115 0-6.156-.307-9.105-.874L176.162 160H308c6.627 0 12 5.373 12 12v8c0 6.627-5.373 12-12 12H180.734l9.143 64H328a16 16 0 0 1 14.746 9.791l57.752 137.159 27.621-12.929c6.091-2.611 13.146.211 15.756 6.302zm-127.488-28.211C301.755 432.107 244.366 480 176 480c-79.401 0-144-64.599-144-144 0-58.714 35.326-109.325 85.836-131.717l-4.671-32.679C47.059 196.957 0 261.081 0 336c0 97.047 78.953 176 176 176 69.906 0 130.418-40.969 158.801-100.155l-18.414-43.733z"></path>
    </symbol>
    <symbol viewBox="0 0 576 512" id="accessibility-eye">
        <path fill="currentColor" d="M569.354 231.631C512.97 135.949 407.81 72 288 72 168.14 72 63.004 135.994 6.646 231.631a47.999 47.999 0 0 0 0 48.739C63.031 376.051 168.19 440 288 440c119.86 0 224.996-63.994 281.354-159.631a47.997 47.997 0 0 0 0-48.738zM288 392c-102.556 0-192.091-54.701-240-136 44.157-74.933 123.677-127.27 216.162-135.007C273.958 131.078 280 144.83 280 160c0 30.928-25.072 56-56 56s-56-25.072-56-56l.001-.042C157.794 179.043 152 200.844 152 224c0 75.111 60.889 136 136 136s136-60.889 136-136c0-31.031-10.4-59.629-27.895-82.515C451.704 164.638 498.009 205.106 528 256c-47.908 81.299-137.444 136-240 136z"></path>
    </symbol>
    <symbol viewBox="0 0 384 512" id="accessibility-plus">
        <path fill="currentColor" d="M368 224H224V80c0-8.84-7.16-16-16-16h-32c-8.84 0-16 7.16-16 16v144H16c-8.84 0-16 7.16-16 16v32c0 8.84 7.16 16 16 16h144v144c0 8.84 7.16 16 16 16h32c8.84 0 16-7.16 16-16V288h144c8.84 0 16-7.16 16-16v-32c0-8.84-7.16-16-16-16z"></path>
    </symbol>
    <symbol viewBox="0 0 448 512" id="accessibility-letter">
        <path fill="currentColor" d="M402.629 430.504L262.703 39.953A12 12 0 0 0 251.406 32h-54.811a12 12 0 0 0-11.297 7.953L45.371 430.504H20c-6.627 0-12 5.373-12 12V468c0 6.627 5.373 12 12 12h120c6.627 0 12-5.373 12-12v-25.496c0-6.627-5.373-12-12-12h-30.538l34.901-99.625h158.64l34.901 99.625H308c-6.627 0-12 5.373-12 12V468c0 6.627 5.373 12 12 12h120c6.627 0 12-5.373 12-12v-25.496c0-6.627-5.373-12-12-12h-25.371zM160.227 280.113l55.206-155.468C221.145 106.244 224 90.38 224 90.38s2.221 15.864 8.566 34.266l54.573 155.468H160.227z"></path>
    </symbol>
    <symbol viewBox="0 0 352 512" id="accessibility-lamp">
        <path fill="currentColor" d="M176 80c-52.94 0-96 43.06-96 96 0 8.84 7.16 16 16 16s16-7.16 16-16c0-35.3 28.72-64 64-64 8.84 0 16-7.16 16-16s-7.16-16-16-16zM96.06 459.17c0 3.15.93 6.22 2.68 8.84l24.51 36.84c2.97 4.46 7.97 7.14 13.32 7.14h78.85c5.36 0 10.36-2.68 13.32-7.14l24.51-36.84c1.74-2.62 2.67-5.7 2.68-8.84l.05-43.18H96.02l.04 43.18zM176 0C73.72 0 0 82.97 0 176c0 44.37 16.45 84.85 43.56 115.78 16.64 18.99 42.74 58.8 52.42 92.16v.06h48v-.12c-.01-4.77-.72-9.51-2.15-14.07-5.59-17.81-22.82-64.77-62.17-109.67-20.54-23.43-31.52-53.15-31.61-84.14-.2-73.64 59.67-128 127.95-128 70.58 0 128 57.42 128 128 0 30.97-11.24 60.85-31.65 84.14-39.11 44.61-56.42 91.47-62.1 109.46a47.507 47.507 0 0 0-2.22 14.3v.1h48v-.05c9.68-33.37 35.78-73.18 52.42-92.16C335.55 260.85 352 220.37 352 176 352 78.8 273.2 0 176 0z"></path>
    </symbol>
    <symbol viewBox="0 0 512 512" id="accessibility-link">
        <path fill="currentColor" d="M314.222 197.78c51.091 51.091 54.377 132.287 9.75 187.16-6.242 7.73-2.784 3.865-84.94 86.02-54.696 54.696-143.266 54.745-197.99 0-54.711-54.69-54.734-143.255 0-197.99 32.773-32.773 51.835-51.899 63.409-63.457 7.463-7.452 20.331-2.354 20.486 8.192a173.31 173.31 0 0 0 4.746 37.828c.966 4.029-.272 8.269-3.202 11.198L80.632 312.57c-32.755 32.775-32.887 85.892 0 118.8 32.775 32.755 85.892 32.887 118.8 0l75.19-75.2c32.718-32.725 32.777-86.013 0-118.79a83.722 83.722 0 0 0-22.814-16.229c-4.623-2.233-7.182-7.25-6.561-12.346 1.356-11.122 6.296-21.885 14.815-30.405l4.375-4.375c3.625-3.626 9.177-4.594 13.76-2.294 12.999 6.524 25.187 15.211 36.025 26.049zM470.958 41.04c-54.724-54.745-143.294-54.696-197.99 0-82.156 82.156-78.698 78.29-84.94 86.02-44.627 54.873-41.341 136.069 9.75 187.16 10.838 10.838 23.026 19.525 36.025 26.049 4.582 2.3 10.134 1.331 13.76-2.294l4.375-4.375c8.52-8.519 13.459-19.283 14.815-30.405.621-5.096-1.938-10.113-6.561-12.346a83.706 83.706 0 0 1-22.814-16.229c-32.777-32.777-32.718-86.065 0-118.79l75.19-75.2c32.908-32.887 86.025-32.755 118.8 0 32.887 32.908 32.755 86.025 0 118.8l-45.848 45.84c-2.93 2.929-4.168 7.169-3.202 11.198a173.31 173.31 0 0 1 4.746 37.828c.155 10.546 13.023 15.644 20.486 8.192 11.574-11.558 30.636-30.684 63.409-63.457 54.733-54.735 54.71-143.3-.001-197.991z"></path>
    </symbol>
    <symbol viewBox="0 0 512 512" id="accessibility-invert">
        <path fill="currentColor" d="M256 56c110.549 0 200 89.468 200 200 0 110.549-89.468 200-200 200-110.549 0-200-89.468-200-200 0-110.549 89.468-200 200-200m0-48C119.033 8 8 119.033 8 256s111.033 248 248 248 248-111.033 248-248S392.967 8 256 8zm0 96c-83.947 0-152 68.053-152 152s68.053 152 152 152V104z"></path>
    </symbol>
    <symbol viewBox="0 0 384 512" id="accessibility-file">
        <path fill="currentColor" d="M369.9 97.9L286 14C277 5 264.8-.1 252.1-.1H48C21.5 0 0 21.5 0 48v416c0 26.5 21.5 48 48 48h288c26.5 0 48-21.5 48-48V131.9c0-12.7-5.1-25-14.1-34zm-22.6 22.7c2.1 2.1 3.5 4.6 4.2 7.4H256V32.5c2.8.7 5.3 2.1 7.4 4.2l83.9 83.9zM336 480H48c-8.8 0-16-7.2-16-16V48c0-8.8 7.2-16 16-16h176v104c0 13.3 10.7 24 24 24h104v304c0 8.8-7.2 16-16 16zm-48-244v8c0 6.6-5.4 12-12 12H108c-6.6 0-12-5.4-12-12v-8c0-6.6 5.4-12 12-12h168c6.6 0 12 5.4 12 12zm0 64v8c0 6.6-5.4 12-12 12H108c-6.6 0-12-5.4-12-12v-8c0-6.6 5.4-12 12-12h168c6.6 0 12 5.4 12 12zm0 64v8c0 6.6-5.4 12-12 12H108c-6.6 0-12-5.4-12-12v-8c0-6.6 5.4-12 12-12h168c6.6 0 12 5.4 12 12z"></path>
    </symbol>
    <symbol viewBox="0 0 1216 1312" id="accessibility-close">
        <path fill="currentColor" d="M1202 1066q0 40-28 68l-136 136q-28 28-68 28t-68-28L608 976l-294 294q-28 28-68 28t-68-28L42 1134q-28-28-28-68t28-68l294-294L42 410q-28-28-28-68t28-68l136-136q28-28 68-28t68 28l294 294l294-294q28-28 68-28t68 28l136 136q28 28 28 68t-28 68L880 704l294 294q28 28 28 68z"></path>
    </symbol>
</svg>